Typography render started: 2026-06-02T02:27:01.982Z
Plan: E:\ai_test\imagevideo\output\production_plan.json
Subtitles: E:\ai_test\imagevideo\output\subtitles.ass
Output: E:\ai_test\imagevideo\output\rendered_typography_video.mp4
Resolution: 1920x1080
FPS: 30
Duration: 171.592s
Background image: E:\ai_test\imagevideo\input\bfd8fc36-97c8-4aaf-a71e-1453c9008172.jpeg
Background video: none
Motion: low
Effect chain: background image slow zoom/pan (low), dark overlay, vignette, light grain, subtitles
Command: ffmpeg -y -loop 1 -framerate 30 -t 171.592 -i E:\ai_test\imagevideo\input\bfd8fc36-97c8-4aaf-a71e-1453c9008172.jpeg -vf scale=2074:1167:force_original_aspect_ratio=increase,zoompan=z='min(zoom+0.00008,1.04)':x='iw/2-(iw/zoom/2)+sin(on/95)*10':y='ih/2-(ih/zoom/2)+cos(on/118.75)*6':d=1:s=1920x1080:fps=30,setsar=1,drawbox=x=0:y=0:w=iw:h=ih:color=0x442288@0.18:thickness=fill:enable='between(t,13.085,15.319)',drawbox=x=0:y=0:w=iw:h=ih:color=0x442288@0.18:thickness=fill:enable='between(t,15.319,17.952)',drawbox=x=0:y=0:w=iw:h=ih:color=0x442288@0.18:thickness=fill:enable='between(t,17.952,20.425)',drawbox=x=0:y=0:w=iw:h=ih:color=0x442288@0.18:thickness=fill:enable='between(t,20.425,22.660)',drawbox=x=0:y=0:w=iw:h=ih:color=0x442288@0.18:thickness=fill:enable='between(t,22.660,25.532)',drawbox=x=0:y=0:w=iw:h=ih:color=0x442288@0.18:thickness=fill:enable='between(t,25.532,27.846)',drawbox=x=0:y=0:w=iw:h=ih:color=0x442288@0.18:thickness=fill:enable='between(t,27.846,29.920)',drawbox=x=0:y=0:w=iw:h=ih:color=0x442288@0.18:thickness=fill:enable='between(t,29.920,32.442)',drawbox=x=0:y=0:w=iw:h=ih:color=0x442288@0.18:thickness=fill:enable='between(t,32.792,35.027)',drawbox=x=0:y=0:w=iw:h=ih:color=0x442288@0.18:thickness=fill:enable='between(t,35.027,37.819)',drawbox=x=0:y=0:w=iw:h=ih:color=0x442288@0.18:thickness=fill:enable='between(t,37.819,40.052)',drawbox=x=0:y=0:w=iw:h=ih:color=0x442288@0.18:thickness=fill:enable='between(t,40.052,42.576)',drawbox=x=0:y=0:w=iw:h=ih:color=0x442288@0.18:thickness=fill:enable='between(t,42.926,48.430)',drawbox=x=0:y=0:w=iw:h=ih:color=0x442288@0.18:thickness=fill:enable='between(t,48.430,51.831)',drawbox=x=0:y=0:w=iw:h=ih:color=0x442288@0.18:thickness=fill:enable='between(t,52.180,57.606)',drawbox=x=0:y=0:w=iw:h=ih:color=0x442288@0.18:thickness=fill:enable='between(t,57.606,62.314)',drawbox=x=0:y=0:w=iw:h=ih:color=0x442288@0.18:thickness=fill:enable='between(t,62.314,67.420)',drawbox=x=0:y=0:w=iw:h=ih:color=0x442288@0.18:thickness=fill:enable='between(t,67.420,71.250)',drawbox=x=0:y=0:w=iw:h=ih:color=0x442288@0.18:thickness=fill:enable='between(t,71.250,77.632)',drawbox=x=0:y=0:w=iw:h=ih:color=0x442288@0.18:thickness=fill:enable='between(t,77.632,82.659)',drawbox=x=0:y=0:w=iw:h=ih:color=0x442288@0.18:thickness=fill:enable='between(t,82.659,87.766)',drawbox=x=0:y=0:w=iw:h=ih:color=0x442288@0.18:thickness=fill:enable='between(t,87.766,93.081)',drawbox=x=0:y=0:w=iw:h=ih:color=0x442288@0.18:thickness=fill:enable='between(t,93.430,95.504)',drawbox=x=0:y=0:w=iw:h=ih:color=0x442288@0.18:thickness=fill:enable='between(t,95.504,98.298)',drawbox=x=0:y=0:w=iw:h=ih:color=0x442288@0.18:thickness=fill:enable='between(t,98.298,100.293)',drawbox=x=0:y=0:w=iw:h=ih:color=0x442288@0.18:thickness=fill:enable='between(t,100.293,101.968)',drawbox=x=0:y=0:w=iw:h=ih:color=0x442288@0.18:thickness=fill:enable='between(t,101.968,102.605)',drawbox=x=0:y=0:w=iw:h=ih:color=0x442288@0.18:thickness=fill:enable='between(t,102.605,106.355)',drawbox=x=0:y=0:w=iw:h=ih:color=0x442288@0.18:thickness=fill:enable='between(t,106.355,108.750)',drawbox=x=0:y=0:w=iw:h=ih:color=0x442288@0.18:thickness=fill:enable='between(t,108.750,113.427)',drawbox=x=0:y=0:w=iw:h=ih:color=0x442288@0.18:thickness=fill:enable='between(t,113.777,116.170)',drawbox=x=0:y=0:w=iw:h=ih:color=0x442288@0.18:thickness=fill:enable='between(t,116.170,118.802)',drawbox=x=0:y=0:w=iw:h=ih:color=0x442288@0.18:thickness=fill:enable='between(t,118.802,121.197)',drawbox=x=0:y=0:w=iw:h=ih:color=0x442288@0.18:thickness=fill:enable='between(t,121.197,123.560)',drawbox=x=0:y=0:w=iw:h=ih:color=0x442288@0.18:thickness=fill:enable='between(t,123.909,126.462)',drawbox=x=0:y=0:w=iw:h=ih:color=0x442288@0.18:thickness=fill:enable='between(t,126.462,129.015)',drawbox=x=0:y=0:w=iw:h=ih:color=0x442288@0.18:thickness=fill:enable='between(t,129.015,131.489)',drawbox=x=0:y=0:w=iw:h=ih:color=0x442288@0.18:thickness=fill:enable='between(t,131.489,133.133)',drawbox=x=0:y=0:w=iw:h=ih:color=0x442288@0.18:thickness=fill:enable='between(t,133.484,138.590)',drawbox=x=0:y=0:w=iw:h=ih:color=0x442288@0.18:thickness=fill:enable='between(t,138.590,143.616)',drawbox=x=0:y=0:w=iw:h=ih:color=0x442288@0.18:thickness=fill:enable='between(t,143.616,148.723)',drawbox=x=0:y=0:w=iw:h=ih:color=0x442288@0.18:thickness=fill:enable='between(t,148.723,153.750)',drawbox=x=0:y=0:w=iw:h=ih:color=0x442288@0.18:thickness=fill:enable='between(t,153.750,158.776)',drawbox=x=0:y=0:w=iw:h=ih:color=0x442288@0.18:thickness=fill:enable='between(t,158.776,162.605)',drawbox=x=0:y=0:w=iw:h=ih:color=0x442288@0.18:thickness=fill:enable='between(t,162.605,169.068)',drawbox=x=0:y=0:w=iw:h=ih:color=0x442288@0.18:thickness=fill:enable='between(t,169.068,171.592)',drawbox=x=0:y=0:w=iw:h=ih:color=black@0.24:thickness=fill,vignette=angle=0.6363,noise=alls=7:allf=t+u,format=yuv420p,subtitles='E\:/ai_test/imagevideo/output/subtitles.ass' -t 171.592 -r 30 -an -c:v libx264 -pix_fmt yuv420p -movflags +faststart E:\ai_test\imagevideo\output\rendered_typography_video.mp4
ffmpeg version 8.1-full_build-www.gyan.dev Copyright (c) 2000-2026 the FFmpeg developers
  built with gcc 15.2.0 (Rev11, Built by MSYS2 project)
  configuration: --enable-gpl --enable-version3 --enable-static --disable-w32threads --disable-autodetect --enable-cairo --enable-fontconfig --enable-iconv --enable-gnutls --enable-lcms2 --enable-libxml2 --enable-gmp --enable-bzlib --enable-lzma --enable-libsnappy --enable-zlib --enable-librist --enable-libsrt --enable-libssh --enable-libzmq --enable-avisynth --enable-libbluray --enable-libcaca --enable-libdvdnav --enable-libdvdread --enable-sdl2 --enable-libaribb24 --enable-libaribcaption --enable-libdav1d --enable-libdavs2 --enable-libopenjpeg --enable-libquirc --enable-libuavs3d --enable-libxevd --enable-libzvbi --enable-liboapv --enable-libqrencode --enable-librav1e --enable-libsvtav1 --enable-libvvenc --enable-libwebp --enable-libx264 --enable-libx265 --enable-libxavs2 --enable-libxeve --enable-libxvid --enable-libaom --enable-libjxl --enable-libsvtjpegxs --enable-libvpx --enable-mediafoundation --enable-libass --enable-frei0r --enable-libfreetype --enable-libfribidi --enable-libharfbuzz --enable-liblensfun --enable-libvidstab --enable-libvmaf --enable-libzimg --enable-amf --enable-cuda-llvm --enable-cuvid --enable-dxva2 --enable-d3d11va --enable-d3d12va --enable-ffnvcodec --enable-libvpl --enable-nvdec --enable-nvenc --enable-vaapi --enable-libshaderc --enable-vulkan --enable-libplacebo --enable-opencl --enable-libcdio --enable-openal --enable-libgme --enable-libmodplug --enable-libopenmpt --enable-libopencore-amrwb --enable-libmp3lame --enable-libshine --enable-libtheora --enable-libtwolame --enable-libvo-amrwbenc --enable-libcodec2 --enable-libilbc --enable-libgsm --enable-liblc3 --enable-libopencore-amrnb --enable-libopus --enable-libspeex --enable-libvorbis --enable-ladspa --enable-libbs2b --enable-libflite --enable-libmysofa --enable-librubberband --enable-libsoxr --enable-chromaprint --enable-whisper
  libavutil      60. 26.100 / 60. 26.100
  libavcodec     62. 28.100 / 62. 28.100
  libavformat    62. 12.100 / 62. 12.100
  libavdevice    62.  3.100 / 62.  3.100
  libavfilter    11. 14.100 / 11. 14.100
  libswscale      9.  5.100 /  9.  5.100
  libswresample   6.  3.100 /  6.  3.100
Input #0, image2, from 'E:\ai_test\imagevideo\input\bfd8fc36-97c8-4aaf-a71e-1453c9008172.jpeg':
  Duration: 00:00:00.03, start: 0.000000, bitrate: 8140 kb/s
  Stream #0:0: Video: mjpeg (Baseline), yuvj420p(pc, bt470bg/unknown/unknown), 360x360 [SAR 1:1 DAR 1:1], 30 fps, 30 tbr, 30 tbn
[Parsed_subtitles_53 @ 000001e4ef2dad40] libass API version: 0x1704000
[Parsed_subtitles_53 @ 000001e4ef2dad40] libass source: commit: 0.17.4-21-gfadc390583f24eb5cf98f16925fd3adee50bca88
[Parsed_subtitles_53 @ 000001e4ef2dad40] Shaper: FriBidi 1.0.16 (SIMPLE) HarfBuzz-ng 13.1.1 (COMPLEX)
[Parsed_subtitles_53 @ 000001e4ef2dad40] Using font provider directwrite (with GDI)
Stream mapping:
  Stream #0:0 -> #0:0 (mjpeg (native) -> h264 (libx264))
Press [q] to stop, [?] for help
[Parsed_subtitles_53 @ 000001e4ef383e80] libass API version: 0x1704000
[Parsed_subtitles_53 @ 000001e4ef383e80] libass source: commit: 0.17.4-21-gfadc390583f24eb5cf98f16925fd3adee50bca88
[Parsed_subtitles_53 @ 000001e4ef383e80] Shaper: FriBidi 1.0.16 (SIMPLE) HarfBuzz-ng 13.1.1 (COMPLEX)
[Parsed_subtitles_53 @ 000001e4ef383e80] Using font provider directwrite (with GDI)
[swscaler @ 000001e4ef3bbb80] deprecated pixel format used, make sure you did set range correctly
[libx264 @ 000001e4eedb3840] using SAR=1/1
[libx264 @ 000001e4eedb3840] using cpu capabilities: MMX2 SSE2Fast SSSE3 SSE4.2 AVX FMA3 BMI2 AVX2
[libx264 @ 000001e4eedb3840] profile High, level 4.0, 4:2:0, 8-bit
[libx264 @ 000001e4eedb3840] 264 - core 165 r3223 0480cb0 - H.264/MPEG-4 AVC codec - Copyleft 2003-2025 - http://www.videolan.org/x264.html - options: cabac=1 ref=3 deblock=1:0:0 analyse=0x3:0x113 me=hex subme=7 psy=1 psy_rd=1.00:0.00 mixed_ref=1 me_range=16 chroma_me=1 trellis=1 8x8dct=1 cqm=0 deadzone=21,11 fast_pskip=1 chroma_qp_offset=-2 threads=18 lookahead_threads=3 sliced_threads=0 nr=0 decimate=1 interlaced=0 bluray_compat=0 constrained_intra=0 bframes=3 b_pyramid=2 b_adapt=1 b_bias=0 direct=1 weightb=1 open_gop=0 weightp=2 keyint=250 keyint_min=25 scenecut=40 intra_refresh=0 rc_lookahead=40 rc=crf mbtree=1 crf=23.0 qcomp=0.60 qpmin=0 qpmax=69 qpstep=4 ip_ratio=1.40 aq=1:1.00
Output #0, mp4, to 'E:\ai_test\imagevideo\output\rendered_typography_video.mp4':
  Metadata:
    encoder         : Lavf62.12.100
  Stream #0:0: Video: h264 (avc1 / 0x31637661), yuv420p(pc, bt470bg/unknown/unknown, progressive), 1920x1080 [SAR 1:1 DAR 16:9], q=2-31, 30 fps, 15360 tbn
    Metadata:
      encoder         : Lavc62.28.100 libx264
    Side data:
      CPB properties: bitrate max/min/avg: 0/0/0 buffer size: 0 vbv_delay: N/A
frame=    0 fps=0.0 q=0.0 size=       0KiB time=N/A bitrate=N/A speed=N/A elapsed=0:00:00.50    frame=    0 fps=0.0 q=0.0 size=       0KiB time=N/A bitrate=N/A speed=N/A elapsed=0:00:01.02    frame=    0 fps=0.0 q=0.0 size=       0KiB time=N/A bitrate=N/A speed=N/A elapsed=0:00:01.54    frame=    0 fps=0.0 q=0.0 size=       0KiB time=N/A bitrate=N/A speed=N/A elapsed=0:00:02.05    frame=   11 fps=4.3 q=29.0 size=       0KiB time=00:00:00.30 bitrate=   1.3kbits/s speed=0.116x elapsed=0:00:02.57    frame=   25 fps=8.1 q=29.0 size=       0KiB time=00:00:00.76 bitrate=   0.5kbits/s speed=0.249x elapsed=0:00:03.08    frame=   37 fps= 10 q=29.0 size=       0KiB time=00:00:01.16 bitrate=   0.3kbits/s speed=0.324x elapsed=0:00:03.59    frame=   49 fps= 12 q=29.0 size=       0KiB time=00:00:01.56 bitrate=   0.2kbits/s speed=0.381x elapsed=0:00:04.11    frame=   61 fps= 13 q=29.0 size=       0KiB time=00:00:01.96 bitrate=   0.2kbits/s speed=0.425x elapsed=0:00:04.62    frame=   75 fps= 15 q=29.0 size=       0KiB time=00:00:02.43 bitrate=   0.2kbits/s speed=0.473x elapsed=0:00:05.14    frame=   87 fps= 15 q=29.0 size=       0KiB time=00:00:02.83 bitrate=   0.1kbits/s speed=0.498x elapsed=0:00:05.68    frame=   98 fps= 16 q=29.0 size=       0KiB time=00:00:03.20 bitrate=   0.1kbits/s speed=0.516x elapsed=0:00:06.20    frame=  113 fps= 17 q=29.0 size=       0KiB time=00:00:03.70 bitrate=   0.1kbits/s speed=0.551x elapsed=0:00:06.71    frame=  125 fps= 17 q=29.0 size=       0KiB time=00:00:04.10 bitrate=   0.1kbits/s speed=0.566x elapsed=0:00:07.23    frame=  138 fps= 18 q=29.0 size=     256KiB time=00:00:04.53 bitrate= 462.7kbits/s speed=0.584x elapsed=0:00:07.75    frame=  152 fps= 18 q=29.0 size=     256KiB time=00:00:05.00 bitrate= 419.5kbits/s speed=0.604x elapsed=0:00:08.27    frame=  166 fps= 19 q=29.0 size=     256KiB time=00:00:05.46 bitrate= 383.7kbits/s speed=0.622x elapsed=0:00:08.78    frame=  180 fps= 19 q=29.0 size=     256KiB time=00:00:05.93 bitrate= 353.5kbits/s speed=0.637x elapsed=0:00:09.30    frame=  193 fps= 20 q=29.0 size=     256KiB time=00:00:06.36 bitrate= 329.5kbits/s speed=0.648x elapsed=0:00:09.82    frame=  206 fps= 20 q=29.0 size=     256KiB time=00:00:06.80 bitrate= 308.5kbits/s speed=0.658x elapsed=0:00:10.33    frame=  219 fps= 20 q=29.0 size=     512KiB time=00:00:07.23 bitrate= 579.9kbits/s speed=0.666x elapsed=0:00:10.85    frame=  232 fps= 20 q=29.0 size=     512KiB time=00:00:07.66 bitrate= 547.1kbits/s speed=0.675x elapsed=0:00:11.36    frame=  247 fps= 21 q=29.0 size=     512KiB time=00:00:08.16 bitrate= 513.6kbits/s speed=0.687x elapsed=0:00:11.88    frame=  261 fps= 21 q=29.0 size=     512KiB time=00:00:08.63 bitrate= 485.9kbits/s speed=0.696x elapsed=0:00:12.39    frame=  273 fps= 21 q=29.0 size=     512KiB time=00:00:09.03 bitrate= 464.4kbits/s speed=0.699x elapsed=0:00:12.91    frame=  286 fps= 21 q=29.0 size=     768KiB time=00:00:09.46 bitrate= 664.6kbits/s speed=0.705x elapsed=0:00:13.42    frame=  299 fps= 21 q=29.0 size=     768KiB time=00:00:09.90 bitrate= 635.5kbits/s speed=0.71x elapsed=0:00:13.95    frame=  311 fps= 22 q=29.0 size=     768KiB time=00:00:10.30 bitrate= 610.9kbits/s speed=0.712x elapsed=0:00:14.46    frame=  323 fps= 22 q=29.0 size=     768KiB time=00:00:10.70 bitrate= 588.0kbits/s speed=0.714x elapsed=0:00:14.98    [Parsed_subtitles_53 @ 000001e4ef383e80] fontselect: (modern geometric sans serif, 700, 0) -> Arial-BoldMT, 0, Arial-BoldMT
[Parsed_subtitles_53 @ 000001e4ef383e80] Glyph 0xD658 not found, selecting one more font for (modern geometric sans serif, 700, 0)
[Parsed_subtitles_53 @ 000001e4ef383e80] fontselect: (modern geometric sans serif, 700, 0) -> MalgunGothicBold, 0, MalgunGothicBold
frame=  333 fps= 21 q=29.0 size=     768KiB time=00:00:11.03 bitrate= 570.3kbits/s speed=0.712x elapsed=0:00:15.49    frame=  344 fps= 21 q=29.0 size=     768KiB time=00:00:11.40 bitrate= 551.9kbits/s speed=0.712x elapsed=0:00:16.00    frame=  355 fps= 21 q=29.0 size=     768KiB time=00:00:11.76 bitrate= 534.7kbits/s speed=0.712x elapsed=0:00:16.52    frame=  365 fps= 21 q=29.0 size=     768KiB time=00:00:12.10 bitrate= 520.0kbits/s speed=0.71x elapsed=0:00:17.03    frame=  374 fps= 21 q=29.0 size=     768KiB time=00:00:12.40 bitrate= 507.4kbits/s speed=0.706x elapsed=0:00:17.55    frame=  383 fps= 21 q=29.0 size=     768KiB time=00:00:12.70 bitrate= 495.4kbits/s speed=0.703x elapsed=0:00:18.06    frame=  393 fps= 21 q=29.0 size=     768KiB time=00:00:13.03 bitrate= 482.7kbits/s speed=0.701x elapsed=0:00:18.58    frame=  404 fps= 21 q=29.0 size=    1024KiB time=00:00:13.40 bitrate= 626.0kbits/s speed=0.701x elapsed=0:00:19.10    frame=  413 fps= 21 q=29.0 size=    1024KiB time=00:00:13.70 bitrate= 612.3kbits/s speed=0.698x elapsed=0:00:19.61    frame=  423 fps= 21 q=29.0 size=    1024KiB time=00:00:14.03 bitrate= 597.8kbits/s speed=0.697x elapsed=0:00:20.14    frame=  434 fps= 21 q=29.0 size=    1024KiB time=00:00:14.40 bitrate= 582.6kbits/s speed=0.697x elapsed=0:00:20.66    frame=  443 fps= 21 q=29.0 size=    1024KiB time=00:00:14.70 bitrate= 570.7kbits/s speed=0.694x elapsed=0:00:21.18    frame=  453 fps= 21 q=29.0 size=    1024KiB time=00:00:15.03 bitrate= 558.0kbits/s speed=0.693x elapsed=0:00:21.69    frame=  464 fps= 21 q=29.0 size=    1024KiB time=00:00:15.40 bitrate= 544.7kbits/s speed=0.693x elapsed=0:00:22.21    frame=  472 fps= 21 q=29.0 size=    1280KiB time=00:00:15.66 bitrate= 669.3kbits/s speed=0.689x elapsed=0:00:22.72    frame=  482 fps= 21 q=29.0 size=    1280KiB time=00:00:16.00 bitrate= 655.4kbits/s speed=0.688x elapsed=0:00:23.24    frame=  492 fps= 21 q=29.0 size=    1280KiB time=00:00:16.33 bitrate= 642.0kbits/s speed=0.688x elapsed=0:00:23.75    frame=  500 fps= 21 q=29.0 size=    1280KiB time=00:00:16.60 bitrate= 631.7kbits/s speed=0.684x elapsed=0:00:24.27    frame=  510 fps= 21 q=29.0 size=    1280KiB time=00:00:16.93 bitrate= 619.3kbits/s speed=0.683x elapsed=0:00:24.79    frame=  518 fps= 20 q=29.0 size=    1280KiB time=00:00:17.20 bitrate= 609.7kbits/s speed=0.68x elapsed=0:00:25.30    frame=  525 fps= 20 q=29.0 size=    1280KiB time=00:00:17.43 bitrate= 601.5kbits/s speed=0.675x elapsed=0:00:25.83    frame=  534 fps= 20 q=29.0 size=    1280KiB time=00:00:17.73 bitrate= 591.3kbits/s speed=0.673x elapsed=0:00:26.33    frame=  544 fps= 20 q=29.0 size=    1280KiB time=00:00:18.06 bitrate= 580.4kbits/s speed=0.673x elapsed=0:00:26.85    frame=  554 fps= 20 q=29.0 size=    1536KiB time=00:00:18.40 bitrate= 683.9kbits/s speed=0.672x elapsed=0:00:27.37    frame=  565 fps= 20 q=29.0 size=    1536KiB time=00:00:18.76 bitrate= 670.5kbits/s speed=0.673x elapsed=0:00:27.88    frame=  575 fps= 20 q=29.0 size=    1536KiB time=00:00:19.10 bitrate= 658.8kbits/s speed=0.672x elapsed=0:00:28.40    frame=  585 fps= 20 q=29.0 size=    1536KiB time=00:00:19.43 bitrate= 647.5kbits/s speed=0.672x elapsed=0:00:28.91    frame=  597 fps= 20 q=29.0 size=    1536KiB time=00:00:19.83 bitrate= 634.5kbits/s speed=0.674x elapsed=0:00:29.43    frame=  607 fps= 20 q=29.0 size=    1536KiB time=00:00:20.16 bitrate= 624.0kbits/s speed=0.673x elapsed=0:00:29.94    frame=  617 fps= 20 q=29.0 size=    1536KiB time=00:00:20.50 bitrate= 613.8kbits/s speed=0.673x elapsed=0:00:30.46    frame=  627 fps= 20 q=29.0 size=    1536KiB time=00:00:20.83 bitrate= 604.0kbits/s speed=0.673x elapsed=0:00:30.97    frame=  637 fps= 20 q=29.0 size=    1536KiB time=00:00:21.16 bitrate= 594.5kbits/s speed=0.672x elapsed=0:00:31.49    frame=  645 fps= 20 q=29.0 size=    1536KiB time=00:00:21.43 bitrate= 587.1kbits/s speed=0.669x elapsed=0:00:32.01    frame=  653 fps= 20 q=29.0 size=    1536KiB time=00:00:21.70 bitrate= 579.9kbits/s speed=0.667x elapsed=0:00:32.52    frame=  662 fps= 20 q=29.0 size=    1792KiB time=00:00:22.00 bitrate= 667.3kbits/s speed=0.666x elapsed=0:00:33.03    frame=  669 fps= 20 q=29.0 size=    1792KiB time=00:00:22.23 bitrate= 660.3kbits/s speed=0.663x elapsed=0:00:33.55    frame=  679 fps= 20 q=29.0 size=    1792KiB time=00:00:22.56 bitrate= 650.5kbits/s speed=0.662x elapsed=0:00:34.06    frame=  688 fps= 20 q=29.0 size=    1792KiB time=00:00:22.86 bitrate= 642.0kbits/s speed=0.661x elapsed=0:00:34.58    frame=  698 fps= 20 q=29.0 size=    1792KiB time=00:00:23.20 bitrate= 632.8kbits/s speed=0.661x elapsed=0:00:35.10    frame=  708 fps= 20 q=29.0 size=    1792KiB time=00:00:23.53 bitrate= 623.8kbits/s speed=0.661x elapsed=0:00:35.61    frame=  719 fps= 20 q=29.0 size=    1792KiB time=00:00:23.90 bitrate= 614.2kbits/s speed=0.661x elapsed=0:00:36.13    frame=  728 fps= 20 q=29.0 size=    2048KiB time=00:00:24.20 bitrate= 693.3kbits/s speed=0.66x elapsed=0:00:36.64    frame=  736 fps= 20 q=29.0 size=    2048KiB time=00:00:24.46 bitrate= 685.7kbits/s speed=0.658x elapsed=0:00:37.16    frame=  745 fps= 20 q=29.0 size=    2048KiB time=00:00:24.76 bitrate= 677.4kbits/s speed=0.657x elapsed=0:00:37.67    frame=  755 fps= 20 q=29.0 size=    2048KiB time=00:00:25.10 bitrate= 668.4kbits/s speed=0.657x elapsed=0:00:38.19    frame=  765 fps= 20 q=29.0 size=    2048KiB time=00:00:25.43 bitrate= 659.7kbits/s speed=0.657x elapsed=0:00:38.71    frame=  775 fps= 20 q=29.0 size=    2048KiB time=00:00:25.76 bitrate= 651.1kbits/s speed=0.657x elapsed=0:00:39.22    frame=  784 fps= 20 q=29.0 size=    2048KiB time=00:00:26.06 bitrate= 643.6kbits/s speed=0.656x elapsed=0:00:39.74    frame=  793 fps= 20 q=29.0 size=    2048KiB time=00:00:26.36 bitrate= 636.3kbits/s speed=0.655x elapsed=0:00:40.25    frame=  802 fps= 20 q=29.0 size=    2048KiB time=00:00:26.66 bitrate= 629.2kbits/s speed=0.654x elapsed=0:00:40.77    frame=  810 fps= 20 q=29.0 size=    2048KiB time=00:00:26.93 bitrate= 622.9kbits/s speed=0.652x elapsed=0:00:41.28    frame=  817 fps= 20 q=29.0 size=    2048KiB time=00:00:27.16 bitrate= 617.6kbits/s speed=0.65x elapsed=0:00:41.80    frame=  824 fps= 19 q=29.0 size=    2048KiB time=00:00:27.40 bitrate= 612.3kbits/s speed=0.647x elapsed=0:00:42.32    frame=  834 fps= 19 q=29.0 size=    2048KiB time=00:00:27.73 bitrate= 605.0kbits/s speed=0.647x elapsed=0:00:42.84    frame=  843 fps= 19 q=29.0 size=    2304KiB time=00:00:28.03 bitrate= 673.3kbits/s speed=0.647x elapsed=0:00:43.36    frame=  851 fps= 19 q=29.0 size=    2304KiB time=00:00:28.30 bitrate= 667.0kbits/s speed=0.645x elapsed=0:00:43.88    frame=  861 fps= 19 q=29.0 size=    2304KiB time=00:00:28.63 bitrate= 659.2kbits/s speed=0.645x elapsed=0:00:44.40    frame=  871 fps= 19 q=29.0 size=    2304KiB time=00:00:28.96 bitrate= 651.6kbits/s speed=0.645x elapsed=0:00:44.92    frame=  881 fps= 19 q=29.0 size=    2304KiB time=00:00:29.30 bitrate= 644.2kbits/s speed=0.645x elapsed=0:00:45.43    frame=  891 fps= 19 q=29.0 size=    2304KiB time=00:00:29.63 bitrate= 636.9kbits/s speed=0.645x elapsed=0:00:45.95    frame=  901 fps= 19 q=29.0 size=    2304KiB time=00:00:29.96 bitrate= 629.9kbits/s speed=0.645x elapsed=0:00:46.45    frame=  912 fps= 19 q=29.0 size=    2560KiB time=00:00:30.33 bitrate= 691.4kbits/s speed=0.646x elapsed=0:00:46.98    frame=  926 fps= 19 q=29.0 size=    2560KiB time=00:00:30.80 bitrate= 680.9kbits/s speed=0.648x elapsed=0:00:47.50    frame=  936 fps= 19 q=29.0 size=    2560KiB time=00:00:31.13 bitrate= 673.6kbits/s speed=0.649x elapsed=0:00:48.00    frame=  946 fps= 19 q=29.0 size=    2560KiB time=00:00:31.46 bitrate= 666.5kbits/s speed=0.648x elapsed=0:00:48.53    frame=  955 fps= 19 q=29.0 size=    2560KiB time=00:00:31.76 bitrate= 660.2kbits/s speed=0.648x elapsed=0:00:49.03    frame=  964 fps= 19 q=29.0 size=    2560KiB time=00:00:32.06 bitrate= 654.0kbits/s speed=0.647x elapsed=0:00:49.55    frame=  974 fps= 19 q=29.0 size=    2560KiB time=00:00:32.40 bitrate= 647.3kbits/s speed=0.647x elapsed=0:00:50.06    frame=  984 fps= 19 q=29.0 size=    2560KiB time=00:00:32.73 bitrate= 640.7kbits/s speed=0.647x elapsed=0:00:50.59    frame=  995 fps= 19 q=29.0 size=    2816KiB time=00:00:33.10 bitrate= 697.0kbits/s speed=0.648x elapsed=0:00:51.09    frame= 1006 fps= 19 q=29.0 size=    2816KiB time=00:00:33.46 bitrate= 689.3kbits/s speed=0.648x elapsed=0:00:51.61    frame= 1017 fps= 20 q=29.0 size=    2816KiB time=00:00:33.83 bitrate= 681.8kbits/s speed=0.649x elapsed=0:00:52.13    frame= 1026 fps= 19 q=29.0 size=    2816KiB time=00:00:34.13 bitrate= 675.9kbits/s speed=0.648x elapsed=0:00:52.64    frame= 1036 fps= 19 q=29.0 size=    2816KiB time=00:00:34.46 bitrate= 669.3kbits/s speed=0.648x elapsed=0:00:53.15    frame= 1046 fps= 19 q=29.0 size=    2816KiB time=00:00:34.80 bitrate= 662.9kbits/s speed=0.648x elapsed=0:00:53.68    frame= 1057 fps= 20 q=29.0 size=    2816KiB time=00:00:35.16 bitrate= 656.0kbits/s speed=0.649x elapsed=0:00:54.19    frame= 1063 fps= 19 q=29.0 size=    2816KiB time=00:00:35.36 bitrate= 652.3kbits/s speed=0.646x elapsed=0:00:54.72    frame= 1070 fps= 19 q=29.0 size=    2816KiB time=00:00:35.60 bitrate= 648.0kbits/s speed=0.644x elapsed=0:00:55.23    frame= 1084 fps= 19 q=29.0 size=    2816KiB time=00:00:36.06 bitrate= 639.6kbits/s speed=0.647x elapsed=0:00:55.76    frame= 1097 fps= 19 q=29.0 size=    2816KiB time=00:00:36.50 bitrate= 632.0kbits/s speed=0.649x elapsed=0:00:56.27    frame= 1110 fps= 20 q=29.0 size=    3072KiB time=00:00:36.93 bitrate= 681.4kbits/s speed=0.65x elapsed=0:00:56.78    frame= 1120 fps= 20 q=29.0 size=    3072KiB time=00:00:37.26 bitrate= 675.3kbits/s speed=0.65x elapsed=0:00:57.31    frame= 1133 fps= 20 q=29.0 size=    3072KiB time=00:00:37.70 bitrate= 667.5kbits/s speed=0.652x elapsed=0:00:57.81    frame= 1144 fps= 20 q=29.0 size=    3072KiB time=00:00:38.06 bitrate= 661.1kbits/s speed=0.653x elapsed=0:00:58.33    frame= 1156 fps= 20 q=29.0 size=    3072KiB time=00:00:38.46 bitrate= 654.2kbits/s speed=0.654x elapsed=0:00:58.85    frame= 1168 fps= 20 q=29.0 size=    3328KiB time=00:00:38.86 bitrate= 701.5kbits/s speed=0.655x elapsed=0:00:59.36    frame= 1182 fps= 20 q=29.0 size=    3328KiB time=00:00:39.33 bitrate= 693.1kbits/s speed=0.657x elapsed=0:00:59.88    frame= 1196 fps= 20 q=29.0 size=    3328KiB time=00:00:39.80 bitrate= 685.0kbits/s speed=0.659x elapsed=0:01:00.39    frame= 1209 fps= 20 q=29.0 size=    3328KiB time=00:00:40.23 bitrate= 677.6kbits/s speed=0.661x elapsed=0:01:00.91    frame= 1225 fps= 20 q=29.0 size=    3328KiB time=00:00:40.76 bitrate= 668.8kbits/s speed=0.664x elapsed=0:01:01.43    frame= 1239 fps= 20 q=29.0 size=    3328KiB time=00:00:41.23 bitrate= 661.2kbits/s speed=0.666x elapsed=0:01:01.94    frame= 1253 fps= 20 q=29.0 size=    3328KiB time=00:00:41.70 bitrate= 653.8kbits/s speed=0.668x elapsed=0:01:02.45    frame= 1265 fps= 20 q=29.0 size=    3328KiB time=00:00:42.10 bitrate= 647.6kbits/s speed=0.668x elapsed=0:01:02.98    frame= 1278 fps= 20 q=29.0 size=    3328KiB time=00:00:42.53 bitrate= 641.0kbits/s speed=0.67x elapsed=0:01:03.49    frame= 1291 fps= 20 q=29.0 size=    3584KiB time=00:00:42.96 bitrate= 683.3kbits/s speed=0.671x elapsed=0:01:04.00    frame= 1305 fps= 20 q=29.0 size=    3584KiB time=00:00:43.43 bitrate= 676.0kbits/s speed=0.673x elapsed=0:01:04.53    frame= 1318 fps= 20 q=29.0 size=    3584KiB time=00:00:43.86 bitrate= 669.3kbits/s speed=0.674x elapsed=0:01:05.04    frame= 1332 fps= 20 q=29.0 size=    3584KiB time=00:00:44.33 bitrate= 662.3kbits/s speed=0.676x elapsed=0:01:05.55    frame= 1346 fps= 20 q=29.0 size=    3584KiB time=00:00:44.80 bitrate= 655.4kbits/s speed=0.678x elapsed=0:01:06.06    frame= 1360 fps= 20 q=29.0 size=    3840KiB time=00:00:45.26 bitrate= 694.9kbits/s speed=0.68x elapsed=0:01:06.59    frame= 1374 fps= 20 q=29.0 size=    3840KiB time=00:00:45.73 bitrate= 687.8kbits/s speed=0.682x elapsed=0:01:07.10    frame= 1387 fps= 21 q=29.0 size=    3840KiB time=00:00:46.16 bitrate= 681.4kbits/s speed=0.683x elapsed=0:01:07.61    frame= 1401 fps= 21 q=29.0 size=    3840KiB time=00:00:46.63 bitrate= 674.6kbits/s speed=0.684x elapsed=0:01:08.13    frame= 1414 fps= 21 q=29.0 size=    3840KiB time=00:00:47.06 bitrate= 668.4kbits/s speed=0.686x elapsed=0:01:08.64    frame= 1427 fps= 21 q=29.0 size=    3840KiB time=00:00:47.50 bitrate= 662.3kbits/s speed=0.687x elapsed=0:01:09.17    frame= 1440 fps= 21 q=29.0 size=    3840KiB time=00:00:47.93 bitrate= 656.3kbits/s speed=0.688x elapsed=0:01:09.68    frame= 1454 fps= 21 q=29.0 size=    3840KiB time=00:00:48.40 bitrate= 650.0kbits/s speed=0.69x elapsed=0:01:10.19    frame= 1467 fps= 21 q=29.0 size=    4096KiB time=00:00:48.83 bitrate= 687.1kbits/s speed=0.691x elapsed=0:01:10.72    frame= 1481 fps= 21 q=29.0 size=    4096KiB time=00:00:49.30 bitrate= 680.6kbits/s speed=0.692x elapsed=0:01:11.24    frame= 1495 fps= 21 q=29.0 size=    4096KiB time=00:00:49.76 bitrate= 674.2kbits/s speed=0.694x elapsed=0:01:11.75    frame= 1511 fps= 21 q=29.0 size=    4096KiB time=00:00:50.30 bitrate= 667.1kbits/s speed=0.696x elapsed=0:01:12.28    frame= 1525 fps= 21 q=29.0 size=    4096KiB time=00:00:50.76 bitrate= 661.0kbits/s speed=0.697x elapsed=0:01:12.79    frame= 1538 fps= 21 q=29.0 size=    4096KiB time=00:00:51.20 bitrate= 655.4kbits/s speed=0.698x elapsed=0:01:13.30    frame= 1551 fps= 21 q=29.0 size=    4352KiB time=00:00:51.63 bitrate= 690.5kbits/s speed=0.699x elapsed=0:01:13.81    frame= 1564 fps= 21 q=29.0 size=    4352KiB time=00:00:52.06 bitrate= 684.7kbits/s speed= 0.7x elapsed=0:01:14.34    frame= 1578 fps= 21 q=29.0 size=    4352KiB time=00:00:52.53 bitrate= 678.7kbits/s speed=0.702x elapsed=0:01:14.85    frame= 1592 fps= 21 q=29.0 size=    4352KiB time=00:00:53.00 bitrate= 672.7kbits/s speed=0.703x elapsed=0:01:15.37    frame= 1606 fps= 21 q=29.0 size=    4352KiB time=00:00:53.46 bitrate= 666.8kbits/s speed=0.704x elapsed=0:01:15.90    frame= 1620 fps= 21 q=29.0 size=    4608KiB time=00:00:53.93 bitrate= 699.9kbits/s speed=0.706x elapsed=0:01:16.41    frame= 1633 fps= 21 q=29.0 size=    4608KiB time=00:00:54.36 bitrate= 694.3kbits/s speed=0.707x elapsed=0:01:16.93    frame= 1646 fps= 21 q=29.0 size=    4608KiB time=00:00:54.80 bitrate= 688.9kbits/s speed=0.708x elapsed=0:01:17.44    frame= 1660 fps= 21 q=29.0 size=    4608KiB time=00:00:55.26 bitrate= 683.0kbits/s speed=0.709x elapsed=0:01:17.95    frame= 1674 fps= 21 q=29.0 size=    4608KiB time=00:00:55.73 bitrate= 677.3kbits/s speed=0.71x elapsed=0:01:18.48    frame= 1688 fps= 21 q=29.0 size=    4608KiB time=00:00:56.20 bitrate= 671.7kbits/s speed=0.711x elapsed=0:01:18.99    frame= 1702 fps= 21 q=29.0 size=    4608KiB time=00:00:56.66 bitrate= 666.2kbits/s speed=0.713x elapsed=0:01:19.50    frame= 1714 fps= 21 q=29.0 size=    4608KiB time=00:00:57.06 bitrate= 661.5kbits/s speed=0.713x elapsed=0:01:20.03    frame= 1728 fps= 21 q=29.0 size=    4608KiB time=00:00:57.53 bitrate= 656.1kbits/s speed=0.714x elapsed=0:01:20.54    frame= 1741 fps= 21 q=29.0 size=    4864KiB time=00:00:57.96 bitrate= 687.4kbits/s speed=0.715x elapsed=0:01:21.05    frame= 1755 fps= 22 q=29.0 size=    4864KiB time=00:00:58.43 bitrate= 681.9kbits/s speed=0.716x elapsed=0:01:21.57    frame= 1769 fps= 22 q=29.0 size=    4864KiB time=00:00:58.90 bitrate= 676.5kbits/s speed=0.718x elapsed=0:01:22.08    frame= 1782 fps= 22 q=29.0 size=    4864KiB time=00:00:59.33 bitrate= 671.6kbits/s speed=0.718x elapsed=0:01:22.59    frame= 1796 fps= 22 q=29.0 size=    4864KiB time=00:00:59.80 bitrate= 666.3kbits/s speed=0.72x elapsed=0:01:23.11    frame= 1809 fps= 22 q=29.0 size=    5120KiB time=00:01:00.23 bitrate= 696.3kbits/s speed=0.72x elapsed=0:01:23.63    frame= 1823 fps= 22 q=29.0 size=    5120KiB time=00:01:00.70 bitrate= 691.0kbits/s speed=0.721x elapsed=0:01:24.14    frame= 1836 fps= 22 q=29.0 size=    5120KiB time=00:01:01.13 bitrate= 686.1kbits/s speed=0.722x elapsed=0:01:24.65    frame= 1849 fps= 22 q=29.0 size=    5120KiB time=00:01:01.56 bitrate= 681.3kbits/s speed=0.723x elapsed=0:01:25.18    frame= 1861 fps= 22 q=29.0 size=    5120KiB time=00:01:01.96 bitrate= 676.9kbits/s speed=0.723x elapsed=0:01:25.69    frame= 1874 fps= 22 q=29.0 size=    5120KiB time=00:01:02.40 bitrate= 672.2kbits/s speed=0.724x elapsed=0:01:26.20    frame= 1888 fps= 22 q=29.0 size=    5376KiB time=00:01:02.86 bitrate= 700.5kbits/s speed=0.725x elapsed=0:01:26.73    frame= 1900 fps= 22 q=29.0 size=    5376KiB time=00:01:03.26 bitrate= 696.1kbits/s speed=0.725x elapsed=0:01:27.24    frame= 1912 fps= 22 q=29.0 size=    5376KiB time=00:01:03.66 bitrate= 691.7kbits/s speed=0.725x elapsed=0:01:27.76    frame= 1924 fps= 22 q=29.0 size=    5376KiB time=00:01:04.06 bitrate= 687.4kbits/s speed=0.726x elapsed=0:01:28.28    frame= 1936 fps= 22 q=29.0 size=    5376KiB time=00:01:04.46 bitrate= 683.2kbits/s speed=0.726x elapsed=0:01:28.78    frame= 1947 fps= 22 q=29.0 size=    5376KiB time=00:01:04.83 bitrate= 679.3kbits/s speed=0.726x elapsed=0:01:29.30    frame= 1959 fps= 22 q=29.0 size=    5376KiB time=00:01:05.23 bitrate= 675.1kbits/s speed=0.726x elapsed=0:01:29.81    frame= 1972 fps= 22 q=29.0 size=    5376KiB time=00:01:05.66 bitrate= 670.7kbits/s speed=0.727x elapsed=0:01:30.33    frame= 1985 fps= 22 q=29.0 size=    5376KiB time=00:01:06.10 bitrate= 666.3kbits/s speed=0.727x elapsed=0:01:30.86    frame= 1998 fps= 22 q=29.0 size=    5376KiB time=00:01:06.53 bitrate= 661.9kbits/s speed=0.728x elapsed=0:01:31.36    frame= 2009 fps= 22 q=29.0 size=    5632KiB time=00:01:06.90 bitrate= 689.7kbits/s speed=0.728x elapsed=0:01:31.88    frame= 2020 fps= 22 q=29.0 size=    5632KiB time=00:01:07.26 bitrate= 685.9kbits/s speed=0.728x elapsed=0:01:32.40    frame= 2032 fps= 22 q=29.0 size=    5632KiB time=00:01:07.66 bitrate= 681.8kbits/s speed=0.728x elapsed=0:01:32.91    frame= 2043 fps= 22 q=29.0 size=    5632KiB time=00:01:08.03 bitrate= 678.2kbits/s speed=0.728x elapsed=0:01:33.43    frame= 2056 fps= 22 q=29.0 size=    5632KiB time=00:01:08.46 bitrate= 673.9kbits/s speed=0.729x elapsed=0:01:33.95    frame= 2068 fps= 22 q=29.0 size=    5632KiB time=00:01:08.86 bitrate= 670.0kbits/s speed=0.729x elapsed=0:01:34.46    frame= 2080 fps= 22 q=29.0 size=    5888KiB time=00:01:09.26 bitrate= 696.4kbits/s speed=0.729x elapsed=0:01:34.98    frame= 2092 fps= 22 q=29.0 size=    5888KiB time=00:01:09.66 bitrate= 692.4kbits/s speed=0.73x elapsed=0:01:35.49    frame= 2105 fps= 22 q=29.0 size=    5888KiB time=00:01:10.10 bitrate= 688.1kbits/s speed=0.73x elapsed=0:01:36.01    frame= 2116 fps= 22 q=29.0 size=    5888KiB time=00:01:10.46 bitrate= 684.5kbits/s speed=0.73x elapsed=0:01:36.51    frame= 2127 fps= 22 q=29.0 size=    5888KiB time=00:01:10.83 bitrate= 681.0kbits/s speed=0.73x elapsed=0:01:37.04    frame= 2140 fps= 22 q=29.0 size=    5888KiB time=00:01:11.26 bitrate= 676.8kbits/s speed=0.731x elapsed=0:01:37.55    frame= 2152 fps= 22 q=29.0 size=    6144KiB time=00:01:11.66 bitrate= 702.3kbits/s speed=0.731x elapsed=0:01:38.06    frame= 2165 fps= 22 q=29.0 size=    6144KiB time=00:01:12.10 bitrate= 698.1kbits/s speed=0.731x elapsed=0:01:38.59    frame= 2178 fps= 22 q=29.0 size=    6144KiB time=00:01:12.53 bitrate= 693.9kbits/s speed=0.732x elapsed=0:01:39.10    frame= 2190 fps= 22 q=29.0 size=    6144KiB time=00:01:12.93 bitrate= 690.1kbits/s speed=0.732x elapsed=0:01:39.61    frame= 2203 fps= 22 q=29.0 size=    6144KiB time=00:01:13.36 bitrate= 686.0kbits/s speed=0.733x elapsed=0:01:40.13    frame= 2216 fps= 22 q=29.0 size=    6144KiB time=00:01:13.80 bitrate= 682.0kbits/s speed=0.733x elapsed=0:01:40.64    frame= 2228 fps= 22 q=29.0 size=    6144KiB time=00:01:14.20 bitrate= 678.3kbits/s speed=0.733x elapsed=0:01:41.17    frame= 2240 fps= 22 q=29.0 size=    6144KiB time=00:01:14.60 bitrate= 674.7kbits/s speed=0.734x elapsed=0:01:41.68    frame= 2252 fps= 22 q=29.0 size=    6144KiB time=00:01:15.00 bitrate= 671.1kbits/s speed=0.734x elapsed=0:01:42.20    frame= 2266 fps= 22 q=29.0 size=    6144KiB time=00:01:15.46 bitrate= 666.9kbits/s speed=0.735x elapsed=0:01:42.71    frame= 2278 fps= 22 q=29.0 size=    6400KiB time=00:01:15.86 bitrate= 691.1kbits/s speed=0.735x elapsed=0:01:43.23    frame= 2289 fps= 22 q=29.0 size=    6400KiB time=00:01:16.23 bitrate= 687.7kbits/s speed=0.735x elapsed=0:01:43.73    frame= 2302 fps= 22 q=29.0 size=    6400KiB time=00:01:16.66 bitrate= 683.9kbits/s speed=0.735x elapsed=0:01:44.26    frame= 2313 fps= 22 q=29.0 size=    6400KiB time=00:01:17.03 bitrate= 680.6kbits/s speed=0.735x elapsed=0:01:44.76    frame= 2326 fps= 22 q=29.0 size=    6400KiB time=00:01:17.46 bitrate= 676.8kbits/s speed=0.736x elapsed=0:01:45.29    frame= 2339 fps= 22 q=29.0 size=    6400KiB time=00:01:17.90 bitrate= 673.0kbits/s speed=0.736x elapsed=0:01:45.80    frame= 2353 fps= 22 q=29.0 size=    6656KiB time=00:01:18.36 bitrate= 695.8kbits/s speed=0.737x elapsed=0:01:46.32    frame= 2365 fps= 22 q=29.0 size=    6656KiB time=00:01:18.76 bitrate= 692.3kbits/s speed=0.737x elapsed=0:01:46.83    frame= 2378 fps= 22 q=29.0 size=    6656KiB time=00:01:19.20 bitrate= 688.5kbits/s speed=0.738x elapsed=0:01:47.34    frame= 2391 fps= 22 q=29.0 size=    6656KiB time=00:01:19.63 bitrate= 684.7kbits/s speed=0.738x elapsed=0:01:47.87    frame= 2405 fps= 22 q=29.0 size=    6656KiB time=00:01:20.10 bitrate= 680.7kbits/s speed=0.739x elapsed=0:01:48.38    frame= 2418 fps= 22 q=29.0 size=    6656KiB time=00:01:20.53 bitrate= 677.1kbits/s speed=0.74x elapsed=0:01:48.90    frame= 2431 fps= 22 q=29.0 size=    6656KiB time=00:01:20.96 bitrate= 673.4kbits/s speed=0.74x elapsed=0:01:49.41    frame= 2444 fps= 22 q=29.0 size=    6656KiB time=00:01:21.40 bitrate= 669.9kbits/s speed=0.74x elapsed=0:01:49.93    frame= 2456 fps= 22 q=29.0 size=    6912KiB time=00:01:21.80 bitrate= 692.2kbits/s speed=0.741x elapsed=0:01:50.44    frame= 2467 fps= 22 q=29.0 size=    6912KiB time=00:01:22.16 bitrate= 689.1kbits/s speed=0.741x elapsed=0:01:50.95    frame= 2480 fps= 22 q=29.0 size=    6912KiB time=00:01:22.60 bitrate= 685.5kbits/s speed=0.741x elapsed=0:01:51.48    frame= 2494 fps= 22 q=29.0 size=    6912KiB time=00:01:23.06 bitrate= 681.7kbits/s speed=0.742x elapsed=0:01:51.99    frame= 2508 fps= 22 q=29.0 size=    6912KiB time=00:01:23.53 bitrate= 677.9kbits/s speed=0.742x elapsed=0:01:52.50    frame= 2521 fps= 22 q=29.0 size=    6912KiB time=00:01:23.96 bitrate= 674.4kbits/s speed=0.743x elapsed=0:01:53.03    frame= 2535 fps= 22 q=29.0 size=    7168KiB time=00:01:24.43 bitrate= 695.5kbits/s speed=0.744x elapsed=0:01:53.54    frame= 2548 fps= 22 q=29.0 size=    7168KiB time=00:01:24.86 bitrate= 691.9kbits/s speed=0.744x elapsed=0:01:54.05    frame= 2562 fps= 22 q=29.0 size=    7168KiB time=00:01:25.33 bitrate= 688.1kbits/s speed=0.745x elapsed=0:01:54.56    frame= 2576 fps= 22 q=29.0 size=    7168KiB time=00:01:25.80 bitrate= 684.4kbits/s speed=0.746x elapsed=0:01:55.08    frame= 2589 fps= 22 q=29.0 size=    7168KiB time=00:01:26.23 bitrate= 681.0kbits/s speed=0.746x elapsed=0:01:55.60    frame= 2603 fps= 22 q=29.0 size=    7168KiB time=00:01:26.70 bitrate= 677.3kbits/s speed=0.747x elapsed=0:01:56.11    frame= 2615 fps= 22 q=29.0 size=    7168KiB time=00:01:27.10 bitrate= 674.2kbits/s speed=0.747x elapsed=0:01:56.63    frame= 2627 fps= 22 q=29.0 size=    7168KiB time=00:01:27.50 bitrate= 671.1kbits/s speed=0.747x elapsed=0:01:57.14    frame= 2640 fps= 22 q=29.0 size=    7424KiB time=00:01:27.93 bitrate= 691.6kbits/s speed=0.747x elapsed=0:01:57.66    frame= 2653 fps= 22 q=29.0 size=    7424KiB time=00:01:28.36 bitrate= 688.2kbits/s speed=0.748x elapsed=0:01:58.18    frame= 2668 fps= 22 q=29.0 size=    7424KiB time=00:01:28.86 bitrate= 684.4kbits/s speed=0.749x elapsed=0:01:58.71    frame= 2682 fps= 22 q=29.0 size=    7424KiB time=00:01:29.33 bitrate= 680.8kbits/s speed=0.749x elapsed=0:01:59.22    frame= 2696 fps= 23 q=29.0 size=    7424KiB time=00:01:29.80 bitrate= 677.3kbits/s speed=0.75x elapsed=0:01:59.73    frame= 2709 fps= 23 q=29.0 size=    7424KiB time=00:01:30.23 bitrate= 674.0kbits/s speed=0.75x elapsed=0:02:00.26    frame= 2723 fps= 23 q=29.0 size=    7680KiB time=00:01:30.70 bitrate= 693.7kbits/s speed=0.751x elapsed=0:02:00.77    frame= 2739 fps= 23 q=29.0 size=    7680KiB time=00:01:31.23 bitrate= 689.6kbits/s speed=0.752x elapsed=0:02:01.28    frame= 2753 fps= 23 q=29.0 size=    7680KiB time=00:01:31.70 bitrate= 686.1kbits/s speed=0.753x elapsed=0:02:01.79    frame= 2767 fps= 23 q=29.0 size=    7680KiB time=00:01:32.16 bitrate= 682.6kbits/s speed=0.753x elapsed=0:02:02.32    frame= 2780 fps= 23 q=29.0 size=    7680KiB time=00:01:32.60 bitrate= 679.4kbits/s speed=0.754x elapsed=0:02:02.83    frame= 2792 fps= 23 q=29.0 size=    7680KiB time=00:01:33.00 bitrate= 676.5kbits/s speed=0.754x elapsed=0:02:03.34    frame= 2807 fps= 23 q=29.0 size=    7936KiB time=00:01:33.50 bitrate= 695.3kbits/s speed=0.755x elapsed=0:02:03.87    frame= 2820 fps= 23 q=29.0 size=    7936KiB time=00:01:33.93 bitrate= 692.1kbits/s speed=0.755x elapsed=0:02:04.38    frame= 2833 fps= 23 q=29.0 size=    7936KiB time=00:01:34.36 bitrate= 688.9kbits/s speed=0.756x elapsed=0:02:04.89    frame= 2846 fps= 23 q=29.0 size=    7936KiB time=00:01:34.80 bitrate= 685.8kbits/s speed=0.756x elapsed=0:02:05.42    frame= 2859 fps= 23 q=29.0 size=    7936KiB time=00:01:35.23 bitrate= 682.7kbits/s speed=0.756x elapsed=0:02:05.93    frame= 2872 fps= 23 q=29.0 size=    7936KiB time=00:01:35.66 bitrate= 679.6kbits/s speed=0.757x elapsed=0:02:06.44    frame= 2887 fps= 23 q=29.0 size=    8192KiB time=00:01:36.16 bitrate= 697.8kbits/s speed=0.757x elapsed=0:02:06.97    frame= 2899 fps= 23 q=29.0 size=    8192KiB time=00:01:36.56 bitrate= 695.0kbits/s speed=0.757x elapsed=0:02:07.49    frame= 2913 fps= 23 q=29.0 size=    8192KiB time=00:01:37.03 bitrate= 691.6kbits/s speed=0.758x elapsed=0:02:08.00    frame= 2927 fps= 23 q=29.0 size=    8192KiB time=00:01:37.50 bitrate= 688.3kbits/s speed=0.759x elapsed=0:02:08.53    frame= 2939 fps= 23 q=29.0 size=    8192KiB time=00:01:37.90 bitrate= 685.5kbits/s speed=0.759x elapsed=0:02:09.04    frame= 2952 fps= 23 q=29.0 size=    8192KiB time=00:01:38.33 bitrate= 682.5kbits/s speed=0.759x elapsed=0:02:09.55    frame= 2966 fps= 23 q=29.0 size=    8448KiB time=00:01:38.80 bitrate= 700.5kbits/s speed=0.76x elapsed=0:02:10.07    frame= 2980 fps= 23 q=29.0 size=    8448KiB time=00:01:39.26 bitrate= 697.2kbits/s speed=0.76x elapsed=0:02:10.58    frame= 2993 fps= 23 q=29.0 size=    8448KiB time=00:01:39.70 bitrate= 694.1kbits/s speed=0.76x elapsed=0:02:11.10    frame= 3006 fps= 23 q=29.0 size=    8448KiB time=00:01:40.13 bitrate= 691.1kbits/s speed=0.761x elapsed=0:02:11.61    frame= 3021 fps= 23 q=29.0 size=    8448KiB time=00:01:40.63 bitrate= 687.7kbits/s speed=0.762x elapsed=0:02:12.13    frame= 3035 fps= 23 q=29.0 size=    8448KiB time=00:01:41.10 bitrate= 684.5kbits/s speed=0.762x elapsed=0:02:12.64    frame= 3047 fps= 23 q=29.0 size=    8448KiB time=00:01:41.50 bitrate= 681.8kbits/s speed=0.762x elapsed=0:02:13.16    frame= 3061 fps= 23 q=29.0 size=    8448KiB time=00:01:41.96 bitrate= 678.7kbits/s speed=0.763x elapsed=0:02:13.68    frame= 3074 fps= 23 q=29.0 size=    8704KiB time=00:01:42.40 bitrate= 696.3kbits/s speed=0.763x elapsed=0:02:14.19    frame= 3087 fps= 23 q=29.0 size=    8704KiB time=00:01:42.83 bitrate= 693.4kbits/s speed=0.763x elapsed=0:02:14.70    frame= 3100 fps= 23 q=29.0 size=    8704KiB time=00:01:43.26 bitrate= 690.5kbits/s speed=0.764x elapsed=0:02:15.22    frame= 3113 fps= 23 q=29.0 size=    8704KiB time=00:01:43.70 bitrate= 687.6kbits/s speed=0.764x elapsed=0:02:15.74    frame= 3127 fps= 23 q=29.0 size=    8704KiB time=00:01:44.16 bitrate= 684.5kbits/s speed=0.764x elapsed=0:02:16.25    frame= 3141 fps= 23 q=29.0 size=    8704KiB time=00:01:44.63 bitrate= 681.5kbits/s speed=0.765x elapsed=0:02:16.78    frame= 3155 fps= 23 q=29.0 size=    8960KiB time=00:01:45.10 bitrate= 698.4kbits/s speed=0.766x elapsed=0:02:17.29    frame= 3168 fps= 23 q=29.0 size=    8960KiB time=00:01:45.53 bitrate= 695.5kbits/s speed=0.766x elapsed=0:02:17.80    frame= 3180 fps= 23 q=29.0 size=    8960KiB time=00:01:45.93 bitrate= 692.9kbits/s speed=0.766x elapsed=0:02:18.31    frame= 3194 fps= 23 q=29.0 size=    8960KiB time=00:01:46.40 bitrate= 689.9kbits/s speed=0.766x elapsed=0:02:18.84    frame= 3207 fps= 23 q=29.0 size=    8960KiB time=00:01:46.83 bitrate= 687.1kbits/s speed=0.767x elapsed=0:02:19.35    frame= 3220 fps= 23 q=29.0 size=    8960KiB time=00:01:47.26 bitrate= 684.3kbits/s speed=0.767x elapsed=0:02:19.86    frame= 3235 fps= 23 q=29.0 size=    9216KiB time=00:01:47.76 bitrate= 700.6kbits/s speed=0.768x elapsed=0:02:20.38    frame= 3249 fps= 23 q=29.0 size=    9216KiB time=00:01:48.23 bitrate= 697.5kbits/s speed=0.768x elapsed=0:02:20.89    frame= 3262 fps= 23 q=29.0 size=    9216KiB time=00:01:48.66 bitrate= 694.8kbits/s speed=0.768x elapsed=0:02:21.41    frame= 3276 fps= 23 q=29.0 size=    9216KiB time=00:01:49.13 bitrate= 691.8kbits/s speed=0.769x elapsed=0:02:21.93    frame= 3290 fps= 23 q=29.0 size=    9216KiB time=00:01:49.60 bitrate= 688.8kbits/s speed=0.769x elapsed=0:02:22.44    frame= 3303 fps= 23 q=29.0 size=    9216KiB time=00:01:50.03 bitrate= 686.1kbits/s speed=0.77x elapsed=0:02:22.95    frame= 3317 fps= 23 q=29.0 size=    9216KiB time=00:01:50.50 bitrate= 683.2kbits/s speed=0.77x elapsed=0:02:23.48    frame= 3331 fps= 23 q=29.0 size=    9216KiB time=00:01:50.96 bitrate= 680.4kbits/s speed=0.771x elapsed=0:02:23.99    frame= 3346 fps= 23 q=29.0 size=    9216KiB time=00:01:51.46 bitrate= 677.3kbits/s speed=0.771x elapsed=0:02:24.50    frame= 3360 fps= 23 q=29.0 size=    9472KiB time=00:01:51.93 bitrate= 693.2kbits/s speed=0.772x elapsed=0:02:25.02    frame= 3373 fps= 23 q=29.0 size=    9472KiB time=00:01:52.36 bitrate= 690.6kbits/s speed=0.772x elapsed=0:02:25.54    frame= 3387 fps= 23 q=29.0 size=    9472KiB time=00:01:52.83 bitrate= 687.7kbits/s speed=0.773x elapsed=0:02:26.06    frame= 3398 fps= 23 q=29.0 size=    9472KiB time=00:01:53.20 bitrate= 685.5kbits/s speed=0.772x elapsed=0:02:26.57    frame= 3411 fps= 23 q=29.0 size=    9472KiB time=00:01:53.63 bitrate= 682.9kbits/s speed=0.773x elapsed=0:02:27.08    frame= 3424 fps= 23 q=29.0 size=    9728KiB time=00:01:54.06 bitrate= 698.6kbits/s speed=0.773x elapsed=0:02:27.60    frame= 3438 fps= 23 q=29.0 size=    9728KiB time=00:01:54.53 bitrate= 695.8kbits/s speed=0.773x elapsed=0:02:28.11    frame= 3451 fps= 23 q=29.0 size=    9728KiB time=00:01:54.96 bitrate= 693.2kbits/s speed=0.773x elapsed=0:02:28.64    frame= 3465 fps= 23 q=29.0 size=    9728KiB time=00:01:55.43 bitrate= 690.4kbits/s speed=0.774x elapsed=0:02:29.16    frame= 3476 fps= 23 q=29.0 size=    9984KiB time=00:01:55.80 bitrate= 706.3kbits/s speed=0.774x elapsed=0:02:29.67    frame= 3489 fps= 23 q=29.0 size=    9984KiB time=00:01:56.23 bitrate= 703.7kbits/s speed=0.774x elapsed=0:02:30.20    frame= 3501 fps= 23 q=29.0 size=    9984KiB time=00:01:56.63 bitrate= 701.3kbits/s speed=0.774x elapsed=0:02:30.71    frame= 3513 fps= 23 q=29.0 size=    9984KiB time=00:01:57.03 bitrate= 698.9kbits/s speed=0.774x elapsed=0:02:31.23    frame= 3526 fps= 23 q=29.0 size=    9984KiB time=00:01:57.46 bitrate= 696.3kbits/s speed=0.774x elapsed=0:02:31.74    frame= 3537 fps= 23 q=29.0 size=    9984KiB time=00:01:57.83 bitrate= 694.1kbits/s speed=0.774x elapsed=0:02:32.25    frame= 3548 fps= 23 q=29.0 size=    9984KiB time=00:01:58.20 bitrate= 692.0kbits/s speed=0.774x elapsed=0:02:32.77    frame= 3562 fps= 23 q=29.0 size=    9984KiB time=00:01:58.66 bitrate= 689.2kbits/s speed=0.774x elapsed=0:02:33.28    frame= 3575 fps= 23 q=29.0 size=   10240KiB time=00:01:59.10 bitrate= 704.3kbits/s speed=0.774x elapsed=0:02:33.80    frame= 3588 fps= 23 q=29.0 size=   10240KiB time=00:01:59.53 bitrate= 701.8kbits/s speed=0.775x elapsed=0:02:34.31    frame= 3602 fps= 23 q=29.0 size=   10240KiB time=00:02:00.00 bitrate= 699.1kbits/s speed=0.775x elapsed=0:02:34.84    frame= 3615 fps= 23 q=29.0 size=   10240KiB time=00:02:00.43 bitrate= 696.5kbits/s speed=0.775x elapsed=0:02:35.35    frame= 3629 fps= 23 q=29.0 size=   10240KiB time=00:02:00.90 bitrate= 693.8kbits/s speed=0.776x elapsed=0:02:35.86    frame= 3643 fps= 23 q=29.0 size=   10240KiB time=00:02:01.36 bitrate= 691.2kbits/s speed=0.776x elapsed=0:02:36.38    frame= 3659 fps= 23 q=29.0 size=   10496KiB time=00:02:01.90 bitrate= 705.4kbits/s speed=0.777x elapsed=0:02:36.89    frame= 3673 fps= 23 q=29.0 size=   10496KiB time=00:02:02.36 bitrate= 702.7kbits/s speed=0.777x elapsed=0:02:37.40    frame= 3687 fps= 23 q=29.0 size=   10496KiB time=00:02:02.83 bitrate= 700.0kbits/s speed=0.778x elapsed=0:02:37.93    frame= 3699 fps= 23 q=29.0 size=   10496KiB time=00:02:03.23 bitrate= 697.7kbits/s speed=0.778x elapsed=0:02:38.44    frame= 3712 fps= 23 q=29.0 size=   10496KiB time=00:02:03.66 bitrate= 695.3kbits/s speed=0.778x elapsed=0:02:38.95    frame= 3726 fps= 23 q=29.0 size=   10752KiB time=00:02:04.13 bitrate= 709.6kbits/s speed=0.778x elapsed=0:02:39.48    frame= 3740 fps= 23 q=29.0 size=   10752KiB time=00:02:04.60 bitrate= 706.9kbits/s speed=0.779x elapsed=0:02:39.98    frame= 3754 fps= 23 q=29.0 size=   10752KiB time=00:02:05.06 bitrate= 704.3kbits/s speed=0.779x elapsed=0:02:40.51    frame= 3768 fps= 23 q=29.0 size=   10752KiB time=00:02:05.53 bitrate= 701.7kbits/s speed=0.78x elapsed=0:02:41.02    frame= 3781 fps= 23 q=29.0 size=   10752KiB time=00:02:05.96 bitrate= 699.2kbits/s speed=0.78x elapsed=0:02:41.53    frame= 3795 fps= 23 q=29.0 size=   10752KiB time=00:02:06.43 bitrate= 696.7kbits/s speed=0.78x elapsed=0:02:42.06    frame= 3809 fps= 23 q=29.0 size=   10752KiB time=00:02:06.90 bitrate= 694.1kbits/s speed=0.781x elapsed=0:02:42.57    frame= 3822 fps= 23 q=29.0 size=   11008KiB time=00:02:07.33 bitrate= 708.2kbits/s speed=0.781x elapsed=0:02:43.08    frame= 3836 fps= 23 q=29.0 size=   11008KiB time=00:02:07.80 bitrate= 705.6kbits/s speed=0.781x elapsed=0:02:43.59    frame= 3849 fps= 23 q=29.0 size=   11008KiB time=00:02:08.23 bitrate= 703.2kbits/s speed=0.781x elapsed=0:02:44.12    frame= 3861 fps= 23 q=29.0 size=   11008KiB time=00:02:08.63 bitrate= 701.0kbits/s speed=0.781x elapsed=0:02:44.63    frame= 3874 fps= 23 q=29.0 size=   11008KiB time=00:02:09.06 bitrate= 698.7kbits/s speed=0.782x elapsed=0:02:45.14    frame= 3888 fps= 23 q=29.0 size=   11008KiB time=00:02:09.53 bitrate= 696.2kbits/s speed=0.782x elapsed=0:02:45.66    frame= 3902 fps= 23 q=29.0 size=   11264KiB time=00:02:10.00 bitrate= 709.8kbits/s speed=0.782x elapsed=0:02:46.17    frame= 3916 fps= 23 q=29.0 size=   11264KiB time=00:02:10.46 bitrate= 707.3kbits/s speed=0.783x elapsed=0:02:46.69    frame= 3929 fps= 23 q=29.0 size=   11264KiB time=00:02:10.90 bitrate= 704.9kbits/s speed=0.783x elapsed=0:02:47.22    frame= 3946 fps= 24 q=29.0 size=   11264KiB time=00:02:11.46 bitrate= 701.9kbits/s speed=0.784x elapsed=0:02:47.72    frame= 3960 fps= 24 q=29.0 size=   11264KiB time=00:02:11.93 bitrate= 699.4kbits/s speed=0.784x elapsed=0:02:48.23    frame= 3975 fps= 24 q=29.0 size=   11264KiB time=00:02:12.43 bitrate= 696.8kbits/s speed=0.785x elapsed=0:02:48.76    frame= 3987 fps= 24 q=29.0 size=   11264KiB time=00:02:12.83 bitrate= 694.7kbits/s speed=0.785x elapsed=0:02:49.27    frame= 4002 fps= 24 q=29.0 size=   11520KiB time=00:02:13.33 bitrate= 707.8kbits/s speed=0.785x elapsed=0:02:49.79    frame= 4016 fps= 24 q=29.0 size=   11520KiB time=00:02:13.80 bitrate= 705.3kbits/s speed=0.786x elapsed=0:02:50.30    frame= 4029 fps= 24 q=29.0 size=   11520KiB time=00:02:14.23 bitrate= 703.0kbits/s speed=0.786x elapsed=0:02:50.82    frame= 4043 fps= 24 q=29.0 size=   11520KiB time=00:02:14.70 bitrate= 700.6kbits/s speed=0.786x elapsed=0:02:51.34    frame= 4056 fps= 24 q=29.0 size=   11520KiB time=00:02:15.13 bitrate= 698.4kbits/s speed=0.786x elapsed=0:02:51.85    frame= 4070 fps= 24 q=29.0 size=   11520KiB time=00:02:15.60 bitrate= 696.0kbits/s speed=0.787x elapsed=0:02:52.36    frame= 4083 fps= 24 q=29.0 size=   11776KiB time=00:02:16.03 bitrate= 709.2kbits/s speed=0.787x elapsed=0:02:52.88    frame= 4097 fps= 24 q=29.0 size=   11776KiB time=00:02:16.50 bitrate= 706.7kbits/s speed=0.787x elapsed=0:02:53.39    frame= 4109 fps= 24 q=29.0 size=   11776KiB time=00:02:16.90 bitrate= 704.7kbits/s speed=0.787x elapsed=0:02:53.90    frame= 4123 fps= 24 q=29.0 size=   11776KiB time=00:02:17.36 bitrate= 702.3kbits/s speed=0.787x elapsed=0:02:54.43    frame= 4136 fps= 24 q=29.0 size=   11776KiB time=00:02:17.80 bitrate= 700.1kbits/s speed=0.788x elapsed=0:02:54.94    frame= 4149 fps= 24 q=29.0 size=   11776KiB time=00:02:18.23 bitrate= 697.9kbits/s speed=0.788x elapsed=0:02:55.45    frame= 4163 fps= 24 q=29.0 size=   11776KiB time=00:02:18.70 bitrate= 695.5kbits/s speed=0.788x elapsed=0:02:55.98    frame= 4177 fps= 24 q=29.0 size=   12032KiB time=00:02:19.16 bitrate= 708.3kbits/s speed=0.788x elapsed=0:02:56.49    frame= 4190 fps= 24 q=29.0 size=   12032KiB time=00:02:19.60 bitrate= 706.1kbits/s speed=0.789x elapsed=0:02:57.00    frame= 4203 fps= 24 q=29.0 size=   12032KiB time=00:02:20.03 bitrate= 703.9kbits/s speed=0.789x elapsed=0:02:57.51    frame= 4217 fps= 24 q=29.0 size=   12032KiB time=00:02:20.50 bitrate= 701.5kbits/s speed=0.789x elapsed=0:02:58.04    frame= 4231 fps= 24 q=29.0 size=   12032KiB time=00:02:20.96 bitrate= 699.2kbits/s speed=0.789x elapsed=0:02:58.55    frame= 4244 fps= 24 q=29.0 size=   12032KiB time=00:02:21.40 bitrate= 697.1kbits/s speed=0.79x elapsed=0:02:59.07    frame= 4257 fps= 24 q=29.0 size=   12032KiB time=00:02:21.83 bitrate= 694.9kbits/s speed=0.79x elapsed=0:02:59.58    frame= 4271 fps= 24 q=29.0 size=   12288KiB time=00:02:22.30 bitrate= 707.4kbits/s speed=0.79x elapsed=0:03:00.09    frame= 4285 fps= 24 q=29.0 size=   12288KiB time=00:02:22.76 bitrate= 705.1kbits/s speed=0.79x elapsed=0:03:00.62    frame= 4297 fps= 24 q=29.0 size=   12288KiB time=00:02:23.16 bitrate= 703.1kbits/s speed=0.79x elapsed=0:03:01.13    frame= 4311 fps= 24 q=29.0 size=   12288KiB time=00:02:23.63 bitrate= 700.8kbits/s speed=0.791x elapsed=0:03:01.64    frame= 4324 fps= 24 q=29.0 size=   12288KiB time=00:02:24.06 bitrate= 698.7kbits/s speed=0.791x elapsed=0:03:02.16    frame= 4337 fps= 24 q=29.0 size=   12544KiB time=00:02:24.50 bitrate= 711.1kbits/s speed=0.791x elapsed=0:03:02.68    frame= 4350 fps= 24 q=29.0 size=   12544KiB time=00:02:24.93 bitrate= 709.0kbits/s speed=0.791x elapsed=0:03:03.20    frame= 4362 fps= 24 q=29.0 size=   12544KiB time=00:02:25.33 bitrate= 707.1kbits/s speed=0.791x elapsed=0:03:03.71    frame= 4374 fps= 24 q=29.0 size=   12544KiB time=00:02:25.73 bitrate= 705.1kbits/s speed=0.791x elapsed=0:03:04.23    frame= 4388 fps= 24 q=29.0 size=   12544KiB time=00:02:26.20 bitrate= 702.9kbits/s speed=0.791x elapsed=0:03:04.74    frame= 4401 fps= 24 q=29.0 size=   12544KiB time=00:02:26.63 bitrate= 700.8kbits/s speed=0.792x elapsed=0:03:05.25    frame= 4415 fps= 24 q=29.0 size=   12544KiB time=00:02:27.10 bitrate= 698.6kbits/s speed=0.792x elapsed=0:03:05.78    frame= 4429 fps= 24 q=29.0 size=   12544KiB time=00:02:27.56 bitrate= 696.4kbits/s speed=0.792x elapsed=0:03:06.29    frame= 4441 fps= 24 q=29.0 size=   12544KiB time=00:02:27.96 bitrate= 694.5kbits/s speed=0.792x elapsed=0:03:06.80    frame= 4454 fps= 24 q=29.0 size=   12544KiB time=00:02:28.40 bitrate= 692.5kbits/s speed=0.792x elapsed=0:03:07.32    frame= 4468 fps= 24 q=29.0 size=   12800KiB time=00:02:28.86 bitrate= 704.4kbits/s speed=0.793x elapsed=0:03:07.83    frame= 4482 fps= 24 q=29.0 size=   12800KiB time=00:02:29.33 bitrate= 702.2kbits/s speed=0.793x elapsed=0:03:08.34    frame= 4496 fps= 24 q=29.0 size=   12800KiB time=00:02:29.80 bitrate= 700.0kbits/s speed=0.793x elapsed=0:03:08.87    frame= 4510 fps= 24 q=29.0 size=   12800KiB time=00:02:30.26 bitrate= 697.8kbits/s speed=0.793x elapsed=0:03:09.38    frame= 4524 fps= 24 q=29.0 size=   13056KiB time=00:02:30.73 bitrate= 709.6kbits/s speed=0.794x elapsed=0:03:09.89    frame= 4538 fps= 24 q=29.0 size=   13056KiB time=00:02:31.20 bitrate= 707.4kbits/s speed=0.794x elapsed=0:03:10.42    frame= 4552 fps= 24 q=29.0 size=   13056KiB time=00:02:31.66 bitrate= 705.2kbits/s speed=0.794x elapsed=0:03:10.93    frame= 4566 fps= 24 q=29.0 size=   13056KiB time=00:02:32.13 bitrate= 703.0kbits/s speed=0.795x elapsed=0:03:11.44    frame= 4580 fps= 24 q=29.0 size=   13056KiB time=00:02:32.60 bitrate= 700.9kbits/s speed=0.795x elapsed=0:03:11.96    frame= 4593 fps= 24 q=29.0 size=   13056KiB time=00:02:33.03 bitrate= 698.9kbits/s speed=0.795x elapsed=0:03:12.47    frame= 4606 fps= 24 q=29.0 size=   13056KiB time=00:02:33.46 bitrate= 696.9kbits/s speed=0.795x elapsed=0:03:12.99    frame= 4621 fps= 24 q=29.0 size=   13312KiB time=00:02:33.96 bitrate= 708.3kbits/s speed=0.796x elapsed=0:03:13.51    frame= 4635 fps= 24 q=29.0 size=   13312KiB time=00:02:34.43 bitrate= 706.1kbits/s speed=0.796x elapsed=0:03:14.02    frame= 4648 fps= 24 q=29.0 size=   13312KiB time=00:02:34.86 bitrate= 704.2kbits/s speed=0.796x elapsed=0:03:14.53    frame= 4662 fps= 24 q=29.0 size=   13312KiB time=00:02:35.33 bitrate= 702.1kbits/s speed=0.796x elapsed=0:03:15.06    frame= 4676 fps= 24 q=29.0 size=   13312KiB time=00:02:35.80 bitrate= 700.0kbits/s speed=0.797x elapsed=0:03:15.57    frame= 4690 fps= 24 q=29.0 size=   13312KiB time=00:02:36.26 bitrate= 697.9kbits/s speed=0.797x elapsed=0:03:16.09    frame= 4704 fps= 24 q=29.0 size=   13312KiB time=00:02:36.73 bitrate= 695.8kbits/s speed=0.797x elapsed=0:03:16.62    frame= 4718 fps= 24 q=29.0 size=   13568KiB time=00:02:37.20 bitrate= 707.1kbits/s speed=0.797x elapsed=0:03:17.13    frame= 4731 fps= 24 q=29.0 size=   13568KiB time=00:02:37.63 bitrate= 705.1kbits/s speed=0.798x elapsed=0:03:17.64    frame= 4744 fps= 24 q=29.0 size=   13568KiB time=00:02:38.06 bitrate= 703.2kbits/s speed=0.798x elapsed=0:03:18.16    frame= 4758 fps= 24 q=29.0 size=   13568KiB time=00:02:38.53 bitrate= 701.1kbits/s speed=0.798x elapsed=0:03:18.67    frame= 4772 fps= 24 q=29.0 size=   13568KiB time=00:02:39.00 bitrate= 699.1kbits/s speed=0.798x elapsed=0:03:19.19    frame= 4786 fps= 24 q=29.0 size=   13824KiB time=00:02:39.46 bitrate= 710.2kbits/s speed=0.798x elapsed=0:03:19.71    frame= 4799 fps= 24 q=29.0 size=   13824KiB time=00:02:39.90 bitrate= 708.2kbits/s speed=0.799x elapsed=0:03:20.22    frame= 4813 fps= 24 q=29.0 size=   13824KiB time=00:02:40.36 bitrate= 706.2kbits/s speed=0.799x elapsed=0:03:20.73    frame= 4826 fps= 24 q=29.0 size=   13824KiB time=00:02:40.80 bitrate= 704.3kbits/s speed=0.799x elapsed=0:03:21.25    frame= 4839 fps= 24 q=29.0 size=   13824KiB time=00:02:41.23 bitrate= 702.4kbits/s speed=0.799x elapsed=0:03:21.78    frame= 4853 fps= 24 q=29.0 size=   13824KiB time=00:02:41.70 bitrate= 700.3kbits/s speed=0.799x elapsed=0:03:22.28    frame= 4865 fps= 24 q=29.0 size=   13824KiB time=00:02:42.10 bitrate= 698.6kbits/s speed=0.799x elapsed=0:03:22.81    frame= 4878 fps= 24 q=29.0 size=   13824KiB time=00:02:42.53 bitrate= 696.8kbits/s speed=0.799x elapsed=0:03:23.31    frame= 4891 fps= 24 q=29.0 size=   14080KiB time=00:02:42.96 bitrate= 707.8kbits/s speed=0.799x elapsed=0:03:23.84    frame= 4903 fps= 24 q=29.0 size=   14080KiB time=00:02:43.36 bitrate= 706.0kbits/s speed=0.799x elapsed=0:03:24.35    frame= 4916 fps= 24 q=29.0 size=   14080KiB time=00:02:43.80 bitrate= 704.2kbits/s speed= 0.8x elapsed=0:03:24.87    frame= 4929 fps= 24 q=29.0 size=   14080KiB time=00:02:44.23 bitrate= 702.3kbits/s speed= 0.8x elapsed=0:03:25.38    frame= 4942 fps= 24 q=29.0 size=   14080KiB time=00:02:44.66 bitrate= 700.5kbits/s speed= 0.8x elapsed=0:03:25.89    frame= 4955 fps= 24 q=29.0 size=   14080KiB time=00:02:45.10 bitrate= 698.6kbits/s speed= 0.8x elapsed=0:03:26.42    frame= 4969 fps= 24 q=29.0 size=   14080KiB time=00:02:45.56 bitrate= 696.7kbits/s speed= 0.8x elapsed=0:03:26.92    frame= 4982 fps= 24 q=29.0 size=   14080KiB time=00:02:46.00 bitrate= 694.8kbits/s speed= 0.8x elapsed=0:03:27.45    frame= 4995 fps= 24 q=29.0 size=   14336KiB time=00:02:46.43 bitrate= 705.6kbits/s speed= 0.8x elapsed=0:03:27.96    frame= 5008 fps= 24 q=29.0 size=   14336KiB time=00:02:46.86 bitrate= 703.8kbits/s speed= 0.8x elapsed=0:03:28.47    frame= 5019 fps= 24 q=29.0 size=   14336KiB time=00:02:47.23 bitrate= 702.3kbits/s speed= 0.8x elapsed=0:03:28.99    frame= 5033 fps= 24 q=29.0 size=   14336KiB time=00:02:47.70 bitrate= 700.3kbits/s speed= 0.8x elapsed=0:03:29.50    frame= 5046 fps= 24 q=29.0 size=   14336KiB time=00:02:48.13 bitrate= 698.5kbits/s speed=0.801x elapsed=0:03:30.03    frame= 5058 fps= 24 q=29.0 size=   14336KiB time=00:02:48.53 bitrate= 696.8kbits/s speed= 0.8x elapsed=0:03:30.54    frame= 5071 fps= 24 q=29.0 size=   14336KiB time=00:02:48.96 bitrate= 695.1kbits/s speed=0.801x elapsed=0:03:31.05    frame= 5085 fps= 24 q=29.0 size=   14592KiB time=00:02:49.43 bitrate= 705.5kbits/s speed=0.801x elapsed=0:03:31.57    [mp4 @ 000001e4eed9fd00] Starting second pass: moving the moov atom to the beginning of the file
[out#0/mp4 @ 000001e4eedab680] video:14805KiB audio:0KiB subtitle:0KiB other streams:0KiB global headers:0KiB muxing overhead: 0.390746%
frame= 5148 fps= 24 q=-1.0 Lsize=   14862KiB time=00:02:51.53 bitrate= 709.8kbits/s speed=0.809x elapsed=0:03:31.99    
[libx264 @ 000001e4eedb3840] frame I:34    Avg QP:22.27  size: 70258
[libx264 @ 000001e4eedb3840] frame P:1628  Avg QP:24.58  size:  4901
[libx264 @ 000001e4eedb3840] frame B:3486  Avg QP:25.48  size:  1375
[libx264 @ 000001e4eedb3840] consecutive B-frames:  9.6%  0.2%  0.8% 89.5%
[libx264 @ 000001e4eedb3840] mb I  I16..4: 23.3% 73.0%  3.7%
[libx264 @ 000001e4eedb3840] mb P  I16..4:  0.1%  0.0%  0.1%  P16..4: 31.9%  0.5%  1.0%  0.0%  0.0%    skip:66.3%
[libx264 @ 000001e4eedb3840] mb B  I16..4:  0.0%  0.0%  0.0%  B16..8: 16.4%  0.1%  0.0%  direct: 0.0%  skip:83.5%  L0:46.0% L1:54.0% BI: 0.0%
[libx264 @ 000001e4eedb3840] 8x8 transform intra:66.3% inter:98.0%
[libx264 @ 000001e4eedb3840] coded y,uvDC,uvAC intra: 55.0% 86.2% 76.3% inter: 1.0% 5.5% 0.0%
[libx264 @ 000001e4eedb3840] i16 v,h,dc,p: 23% 29%  6% 42%
[libx264 @ 000001e4eedb3840] i8 v,h,dc,ddl,ddr,vr,hd,vl,hu: 21% 24% 17%  7%  6%  6%  7%  6%  6%
[libx264 @ 000001e4eedb3840] i4 v,h,dc,ddl,ddr,vr,hd,vl,hu: 32% 33%  9%  5%  5%  5%  5%  4%  3%
[libx264 @ 000001e4eedb3840] i8c dc,h,v,p: 75% 12% 11%  3%
[libx264 @ 000001e4eedb3840] Weighted P-Frames: Y:0.7% UV:0.7%
[libx264 @ 000001e4eedb3840] ref P L0: 60.8%  5.6% 24.6%  8.9%  0.0%
[libx264 @ 000001e4eedb3840] ref B L0: 83.9% 13.7%  2.4%
[libx264 @ 000001e4eedb3840] ref B L1: 94.1%  5.9%
[libx264 @ 000001e4eedb3840] kb/s:706.73

Typography render completed: 2026-06-02T02:30:34.477Z
Typography video written to E:\ai_test\imagevideo\output\rendered_typography_video.mp4
